<svg enable-background="new 0 0 200 69" height="69" viewBox="0 0 200 69" width="200" xmlns="http://www.w3.org/2000/svg"><g fill="#fff"><path d="m31.96 20.108c.819-.503 5.232-2.849 12.354.091 7.325 3.022 11.87.397 12.434.04-1.771-2.911-3.876-5.445-6.206-7.148.156-.043.314-.086.481-.135 3.088-.894 3.872-3.508 4.038-5.747.186-2.54.315-2.579.867-4.864.53-2.194-.061-2.633-.605-2.19-.293.238-2.846.828-4.36 2.008-2.444 1.908-3.951 5.534-4.634 7.539-.013.031-.105.31-.136.406-.318.768-.953.766-.953.766-.308-.034-.616-.051-.927-.051-.277 0-.553.015-.829.041-.006.001-.009 0-.016 0-.81.12-1.256-.87-1.349-1.105-.947-2.72-3.494-8.082-9.22-9.524 0 0-1.04-.796-.723.551.302 1.287.925 2.588.787 4.481-.063.874-.605 5.354 3.512 7.685.391.222.738.408 1.051.564-2.071 1.66-3.954 3.97-5.566 6.592z"/><path d="m58.992 61.077c-5.045-3.126-6.743-4.226-6.637-5.422 0 0 .001-.194.05-.49.123-.635.511-1.717 1.747-2.334.04-.021.075-.043.106-.066 3.931-2.281 6.803-5.954 7.816-10.539-1.021 2.532-8.58 4.5-17.761 4.5-9.179 0-16.74-1.968-17.759-4.5.227 1.028.55 2.011.956 2.943.341 1.92.8 6.44-1.371 10.398-1.913 3.485-11.355 8.237-25.369 5.51 0 0-.562-.394-.732-.07-.251.479.778.863 1.837 1.143 9.756 2.585 24.483 1.533 29.108-2.277 2.11-1.736 2.923-4.077 3.131-6.595l.002.004s.056-.661.881-.165c.237.143 1.09.698 1.226 1.326.119.893.126 1.989-.334 2.759-.66 1.098-.667 1.256.201 1.877.534.381 2.711 1.981 5.741 3.802.007.005.011.01.02.014.641.386 1.531 1.331 1.531 1.331 1.365 1.578 4.334 4.755 5.625 4.157.61-.282-.026-1.555-.026-1.555s1.015 1.317 1.56.869c.416-.343-.242-1.656-.242-1.656s.885.77 1.414.484c.644-.347-.096-2.365-5.167-5.447-5.073-3.085-6.448-3.559-6.57-4.936 0 0-.002-.069.003-.188.039-.304.212-.947.949-.878 1.098.178 2.229.272 3.389.272 1.326 0 2.618-.121 3.863-.354l.001.002s.065-.013.084-.016c.146-.019.429-.01.43.344-.046.447-.169.897-.432 1.291-.743 1.112-.499 1.264.275 1.979.479.441 2.672 2.37 5.676 4.236.006.005.008.009.016.013.641.386 1.749 1.443 1.749 1.443 1.244 1.264 3.534 3.381 4.782 3.254.843-.087.156-1.54.156-1.54s1.065 1.028 1.589.727c.584-.338-.243-1.412-.243-1.412s.686.363 1.17.242.604-1.356-4.441-4.48z"/><path d="m53.355 25.754c-.605 0-1.108.183-1.493.542-.39.364-.587.785-.587 1.25v8.231c0 1.105-.195 1.919-.582 2.421-.373.484-.969.721-1.822.721-.874 0-1.468-.234-1.82-.716-.367-.502-.553-1.317-.553-2.426v-8.263c0-.562-.256-1.022-.742-1.331-.66-.416-1.317-.567-2.116-.301-.244.081-.473.188-.683.316-.224.135-.412.305-.561.504-.165.221-.249.462-.249.715v8.359c0 1.106-.186 1.923-.553 2.425-.353.482-.948.717-1.819.717-.874 0-1.475-.235-1.837-.719-.376-.502-.567-1.317-.567-2.423v-8.231c0-.464-.198-.885-.588-1.25-.385-.359-.897-.542-1.524-.542-.645 0-1.177.181-1.581.536-.416.364-.626.787-.626 1.256v8.104c0 1.019.1 1.983.295 2.864.201.901.552 1.691 1.044 2.352.495.665 1.169 1.19 2.002 1.563.823.366 1.854.553 3.063.553 1.26 0 2.315-.233 3.135-.693.688-.387 1.268-.895 1.728-1.514.444.619 1.01 1.127 1.689 1.513.811.461 1.881.694 3.184.694 1.208 0 2.235-.188 3.05-.554.82-.373 1.487-.898 1.984-1.562.493-.662.843-1.453 1.043-2.352.196-.881.295-1.846.295-2.864v-8.104c0-.466-.205-.888-.607-1.253-.396-.357-.935-.538-1.602-.538z"/><path d="m77.246 27.652c-.572-.594-1.313-1.065-2.205-1.4-.884-.331-1.941-.498-3.142-.498-1.295 0-2.446.23-3.42.684-.972.454-1.791 1.053-2.433 1.784-.64.728-1.132 1.557-1.463 2.461-.33.903-.497 1.831-.497 2.756v2.819c0 .838.128 1.664.382 2.457.256.801.645 1.522 1.156 2.145.515.628 1.184 1.143 1.985 1.532.807.392 1.753.59 2.816.59.658 0 1.222-.051 1.678-.15.464-.102.873-.253 1.216-.447s.641-.422.883-.676c.145-.152.287-.316.42-.487v.129c0 .466.198.887.587 1.25.384.359.887.541 1.492.541.668 0 1.208-.181 1.603-.538.401-.365.605-.786.605-1.253v-8.968c0-.944-.134-1.826-.398-2.621-.268-.807-.695-1.517-1.265-2.11zm-6.734 2.444c.409-.186.875-.278 1.388-.278.886 0 1.573.197 2.042.589.453.379.682 1.065.682 2.04v3.01c0 .576-.099 1.085-.294 1.515-.196.432-.453.794-.764 1.075-.312.283-.674.501-1.075.648-.404.147-.829.223-1.264.223-.785 0-1.421-.246-1.947-.753-.523-.504-.778-1.086-.778-1.78v-3.074c0-.474.085-.923.252-1.334.166-.413.402-.789.7-1.115.29-.321.645-.579 1.058-.766z"/><path d="m90.283 20.309c-.645 0-1.177.181-1.583.536-.415.365-.625.787-.625 1.255v19.089c0 .469.21.891.625 1.257.405.354.938.535 1.583.535.626 0 1.14-.183 1.524-.542.389-.365.587-.785.587-1.25v-19.088c0-.464-.198-.885-.587-1.25-.385-.359-.898-.542-1.524-.542z"/><path d="m103.958 20.309c-.645 0-1.177.181-1.581.536-.416.365-.626.787-.626 1.255v19.089c0 .469.21.891.626 1.257.404.354.937.535 1.581.535.628 0 1.14-.183 1.525-.542.389-.365.587-.785.587-1.25v-19.088c0-.464-.198-.885-.587-1.25-.385-.359-.897-.542-1.525-.542z"/><path d="m127.978 27.652c-.571-.594-1.312-1.065-2.205-1.4-.885-.331-1.94-.498-3.142-.498-1.294 0-2.445.23-3.42.684-.972.454-1.789 1.053-2.432 1.784-.639.727-1.133 1.555-1.464 2.461-.33.903-.497 1.831-.497 2.756v2.819c0 .836.128 1.662.381 2.457.256.8.645 1.521 1.157 2.145.516.628 1.183 1.143 1.985 1.532.807.392 1.752.59 2.815.59.658 0 1.223-.051 1.679-.15.464-.102.873-.253 1.218-.447.341-.193.639-.421.881-.676.146-.152.287-.316.421-.487v.129c0 .466.197.887.587 1.25.384.359.887.541 1.491.541.669 0 1.207-.181 1.603-.538.402-.364.606-.786.606-1.253v-8.968c0-.944-.134-1.826-.398-2.621-.269-.805-.694-1.515-1.266-2.11zm-6.735 2.444c.41-.186.876-.278 1.388-.278.887 0 1.574.197 2.041.589.455.379.684 1.064.684 2.04v3.01c0 .575-.099 1.084-.294 1.515-.197.432-.455.794-.766 1.075-.312.283-.674.501-1.074.648-.404.147-.829.223-1.264.223-.783 0-1.421-.246-1.947-.753-.523-.504-.777-1.086-.777-1.78v-3.074c0-.474.084-.923.252-1.334.166-.413.402-.789.698-1.114.292-.322.648-.581 1.059-.767z"/><path d="m151.964 27.988c-.581-.703-1.327-1.258-2.218-1.649-.891-.389-1.952-.585-3.158-.585-.848 0-1.621.155-2.295.457-.529.239-.996.561-1.392.96v-5.071c0-.464-.197-.885-.586-1.25-.386-.359-.898-.542-1.523-.542-.646 0-1.18.181-1.584.536-.415.365-.625.787-.625 1.255v14.253c0 .951.163 1.843.483 2.651.324.815.816 1.535 1.466 2.139.645.6 1.459 1.072 2.424 1.406.953.328 2.078.495 3.343.495 1.231 0 2.32-.208 3.24-.616.919-.411 1.701-.974 2.323-1.674.622-.699 1.089-1.521 1.387-2.439.297-.91.447-1.894.447-2.923v-1.857c0-1.111-.146-2.146-.429-3.079-.288-.938-.725-1.768-1.303-2.467zm-5.665 10.993c-.985 0-1.817-.21-2.472-.627-.622-.396-.926-1.01-.926-1.873v-3.673c.041-1.041.345-1.806.907-2.273.574-.477 1.304-.718 2.17-.718 1.017 0 1.815.312 2.438.953.617.636.928 1.588.928 2.829v1.921c0 1.054-.281 1.907-.84 2.532-.557.627-1.277.929-2.205.929z"/><path d="m174.804 27.652c-.574-.594-1.315-1.065-2.205-1.4-.885-.331-1.942-.498-3.143-.498-1.296 0-2.447.23-3.421.684-.971.454-1.788 1.053-2.433 1.784-.639.727-1.13 1.555-1.462 2.461-.329.903-.497 1.831-.497 2.756v2.819c0 .836.128 1.662.382 2.457.255.8.645 1.521 1.156 2.145.515.628 1.183 1.143 1.985 1.532.807.392 1.753.59 2.816.59.657 0 1.222-.051 1.678-.15.464-.102.872-.253 1.217-.447.342-.193.639-.421.883-.676.145-.152.286-.316.421-.487v.129c0 .466.197.887.586 1.25.384.359.887.541 1.492.541.669 0 1.207-.181 1.602-.538.402-.364.605-.786.605-1.253v-8.968c0-.944-.133-1.826-.398-2.621-.268-.805-.693-1.515-1.264-2.11zm-6.735 2.444c.407-.186.875-.278 1.387-.278.887 0 1.572.197 2.042.589.452.379.684 1.064.684 2.04v3.01c0 .575-.101 1.084-.297 1.515-.195.432-.452.794-.764 1.075-.312.283-.674.501-1.074.648-.404.147-.829.223-1.263.223-.786 0-1.423-.246-1.948-.753-.523-.504-.778-1.086-.778-1.78v-3.074c0-.474.086-.923.253-1.334.166-.413.4-.789.698-1.114.293-.322.648-.581 1.06-.767z"/><path d="m199.192 29.599c-.271-.785-.696-1.474-1.271-2.048-.569-.57-1.311-1.023-2.203-1.349-.883-.318-1.938-.48-3.14-.48-1.295 0-2.44.23-3.405.685-.961.453-1.772 1.059-2.415 1.801-.643.74-1.129 1.608-1.449 2.58-.318.965-.479 1.975-.479 3.004v1.889c0 2.238.573 4.031 1.704 5.329 1.14 1.308 2.775 1.972 4.859 1.972 1.111 0 2.024-.195 2.717-.582.472-.262.87-.581 1.192-.952v.927c0 .71-.08 1.285-.236 1.71-.155.413-.367.741-.628.976-.263.234-.576.396-.934.48-.382.09-.812.136-1.279.136-.77 0-1.369-.041-1.786-.123-.46-.09-.807-.133-1.063-.133-.672 0-1.187.167-1.527.496-.346.332-.521.778-.521 1.327 0 .742.4 1.372 1.24 1.9.302.115.773.215 1.444.306.651.085 1.396.129 2.214.129.965 0 1.899-.145 2.779-.429.884-.288 1.678-.733 2.357-1.323.68-.591 1.228-1.346 1.628-2.245.398-.896.6-1.976.6-3.207v-10.28c.001-.883-.133-1.723-.398-2.496zm-7.99.492c.406-.203.87-.306 1.377-.306.89 0 1.581.185 2.05.548.455.352.675.886.675 1.632v3.993c-.039 1.034-.345 1.765-.934 2.238-.605.485-1.306.722-2.144.722-2.049 0-3.045-1.018-3.045-3.109v-2.146c0-.541.088-1.052.257-1.521.168-.466.402-.877.7-1.224.296-.343.653-.621 1.064-.827z"/></g></svg>