<svg enable-background="new 0 0 200 69" height="69" viewBox="0 0 200 69" width="200" xmlns="http://www.w3.org/2000/svg"><path d="m31.996 20.13c.82-.503 5.239-2.852 12.368.091 7.333 3.026 11.883.398 12.447.041-1.773-2.915-3.881-5.451-6.213-7.156.156-.042.314-.086.482-.135 3.092-.894 3.876-3.512 4.043-5.753.187-2.542.315-2.582.868-4.869.53-2.197-.061-2.636-.606-2.193-.294.239-2.85.829-4.365 2.011-2.447 1.909-3.955 5.54-4.64 7.547-.013.03-.105.309-.135.407-.319.769-.954.767-.954.767-.307-.034-.616-.052-.927-.052-.278 0-.554.016-.83.042-.006.001-.01 0-.016.001-.812.119-1.258-.872-1.351-1.107-.948-2.723-3.498-8.09-9.23-9.535 0 0-1.041-.798-.724.551.302 1.289.926 2.592.788 4.486-.063.875-.606 5.359 3.516 7.693.391.221.74.408 1.052.564-2.074 1.663-3.96 3.975-5.573 6.599z"/><path d="m59.057 61.144c-5.051-3.129-6.751-4.229-6.645-5.426 0 0 .001-.195.051-.492.123-.635.51-1.718 1.749-2.336.041-.021.075-.043.106-.065 3.936-2.285 6.811-5.962 7.825-10.553-1.021 2.536-8.589 4.507-17.78 4.507-9.189 0-16.758-1.971-17.779-4.507.227 1.03.55 2.014.957 2.947.341 1.923.801 6.448-1.373 10.41-1.915 3.488-11.368 8.246-25.397 5.515 0 0-.562-.392-.733-.068-.251.478.779.864 1.839 1.144 9.768 2.587 24.51 1.534 29.14-2.28 2.112-1.738 2.928-4.081 3.135-6.603l.001.003s.057-.66.882-.164c.237.143 1.09.699 1.228 1.328.119.894.127 1.991-.336 2.761-.66 1.101-.667 1.26.203 1.88.533.381 2.713 1.983 5.746 3.806.008.005.012.01.021.014.642.387 1.532 1.333 1.532 1.333 1.366 1.581 4.338 4.76 5.631 4.161.611-.282-.025-1.556-.025-1.556s1.016 1.319 1.562.87c.415-.344-.243-1.657-.243-1.657s.886.77 1.415.485c.646-.35-.096-2.369-5.173-5.456-5.079-3.088-6.455-3.561-6.576-4.938 0 0-.003-.07.002-.189.04-.304.212-.947.95-.879 1.099.179 2.232.273 3.393.273 1.328 0 2.621-.122 3.867-.354l.001.002s.064-.013.084-.017c.146-.018.43-.008.432.345-.046.447-.171.898-.434 1.292-.743 1.113-.5 1.266.277 1.981.479.441 2.674 2.372 5.682 4.24.005.006.008.009.016.013.641.386 1.75 1.446 1.75 1.446v-.001c1.247 1.265 3.538 3.385 4.788 3.257.845-.086.157-1.54.157-1.54s1.067 1.029 1.59.727c.586-.338-.243-1.414-.243-1.414s.686.363 1.171.242c.483-.123.604-1.359-4.446-4.487z"/><path d="m53.414 25.783c-.605 0-1.108.182-1.494.542-.39.365-.587.786-.587 1.251v8.24c0 1.106-.197 1.921-.583 2.423-.374.485-.97.722-1.825.722-.874 0-1.469-.234-1.821-.716-.367-.503-.554-1.32-.554-2.429v-8.272c0-.563-.256-1.024-.743-1.332-.661-.417-1.319-.568-2.12-.302-.244.082-.474.188-.684.315-.223.137-.411.307-.56.506-.167.221-.25.462-.25.717v8.368c0 1.107-.186 1.924-.554 2.428-.353.482-.949.717-1.82.717-.876 0-1.477-.235-1.841-.719-.377-.503-.568-1.319-.568-2.426v-8.24c0-.466-.197-.887-.587-1.251-.386-.36-.899-.542-1.526-.542-.646 0-1.178.18-1.584.537-.416.364-.627.788-.627 1.257v8.112c0 1.021.1 1.985.295 2.868.202.901.553 1.693 1.045 2.354.496.666 1.171 1.192 2.003 1.565.826.367 1.857.553 3.067.553 1.26 0 2.316-.232 3.138-.694.689-.386 1.269-.895 1.73-1.515.444.62 1.011 1.129 1.69 1.515.812.462 1.884.694 3.188.694 1.211 0 2.238-.187 3.053-.554.822-.372 1.489-.899 1.987-1.564.493-.662.844-1.454 1.044-2.354.195-.883.295-1.848.295-2.868v-8.112c0-.467-.205-.89-.607-1.255-.392-.358-.931-.539-1.6-.539z"/><path d="m77.331 27.682c-.572-.595-1.315-1.065-2.207-1.4-.884-.332-1.944-.499-3.146-.499-1.297 0-2.448.23-3.424.685-.974.453-1.792 1.054-2.435 1.786-.641.729-1.133 1.559-1.464 2.463s-.498 1.834-.498 2.759v2.822c0 .839.128 1.666.382 2.46.257.802.646 1.524 1.157 2.146.516.628 1.185 1.145 1.989 1.535.806.391 1.754.589 2.818.589.659 0 1.224-.05 1.681-.15.463-.102.874-.253 1.217-.447.345-.194.642-.422.884-.676.145-.153.287-.317.421-.488v.13c0 .466.197.886.587 1.25.385.36.888.542 1.494.542.668 0 1.208-.181 1.604-.539.403-.364.607-.786.607-1.253v-8.979c0-.946-.134-1.829-.399-2.623-.269-.808-.696-1.518-1.268-2.113zm-6.741 2.447c.409-.185.877-.279 1.389-.279.887 0 1.575.199 2.044.59.454.38.684 1.067.684 2.042v3.013c0 .577-.1 1.087-.295 1.517-.196.433-.454.795-.765 1.077-.312.283-.675.501-1.076.647-.405.148-.83.224-1.266.224-.785 0-1.422-.247-1.949-.754-.524-.503-.778-1.087-.778-1.781v-3.078c0-.474.085-.924.252-1.336.166-.415.402-.79.7-1.117.29-.32.648-.577 1.06-.765z"/><path d="m90.383 20.332c-.645 0-1.178.181-1.584.538-.416.365-.626.788-.626 1.256v19.11c0 .469.21.892.626 1.258.406.355.939.535 1.584.535.628 0 1.141-.182 1.526-.542.391-.364.588-.785.588-1.251v-19.11c0-.465-.197-.885-.588-1.25-.386-.362-.898-.544-1.526-.544z"/><path d="m104.074 20.332c-.646 0-1.179.181-1.584.538-.415.365-.626.788-.626 1.256v19.11c0 .469.211.892.626 1.258.405.355.938.535 1.584.535.628 0 1.141-.182 1.526-.542.391-.364.588-.785.588-1.251v-19.11c0-.465-.197-.885-.588-1.25-.385-.362-.898-.544-1.526-.544z"/><path d="m128.12 27.682c-.573-.595-1.316-1.065-2.207-1.4-.885-.332-1.944-.499-3.146-.499-1.297 0-2.447.23-3.424.685-.973.453-1.79 1.054-2.435 1.786-.64.728-1.133 1.558-1.464 2.463-.33.905-.498 1.834-.498 2.759v2.822c0 .838.129 1.665.383 2.46.255.801.644 1.523 1.156 2.146.516.628 1.186 1.145 1.988 1.535.807.391 1.756.589 2.818.589.659 0 1.224-.05 1.681-.15.464-.102.873-.252 1.219-.447.342-.194.64-.422.883-.676.146-.153.287-.317.42-.488v.13c0 .466.198.886.589 1.25.384.36.886.542 1.493.542.668 0 1.209-.181 1.604-.539.404-.363.607-.786.607-1.253v-8.979c0-.946-.135-1.829-.398-2.623-.271-.807-.697-1.517-1.269-2.113zm-6.742 2.447c.409-.185.878-.279 1.389-.279.889 0 1.575.199 2.045.59.453.38.683 1.066.683 2.042v3.013c0 .575-.099 1.086-.294 1.517-.197.433-.455.795-.766 1.077-.312.283-.675.501-1.076.647-.405.148-.83.224-1.264.224-.786 0-1.424-.247-1.951-.754-.524-.503-.777-1.087-.777-1.781v-3.078c0-.474.084-.924.251-1.336.168-.413.403-.789.7-1.116.291-.321.65-.579 1.06-.766z"/><path d="m152.135 28.019c-.582-.704-1.331-1.26-2.224-1.65-.889-.39-1.953-.586-3.16-.586-.85 0-1.622.154-2.299.458-.53.238-.996.561-1.391.96v-5.076c0-.465-.197-.887-.588-1.25-.387-.36-.899-.543-1.526-.543-.646 0-1.179.181-1.584.538-.414.365-.627.788-.627 1.256v14.269c0 .952.163 1.845.487 2.655.322.815.815 1.536 1.464 2.141.646.6 1.462 1.074 2.428 1.406.953.33 2.08.497 3.347.497 1.231 0 2.322-.208 3.243-.617.921-.411 1.704-.975 2.326-1.675.623-.701 1.089-1.522 1.389-2.443.297-.911.447-1.895.447-2.926v-1.859c0-1.112-.145-2.149-.43-3.082-.287-.942-.725-1.773-1.302-2.473zm-5.673 11.006c-.985 0-1.82-.212-2.476-.628-.622-.397-.925-1.011-.925-1.876v-3.676c.038-1.042.344-1.809.905-2.275.576-.478 1.308-.72 2.175-.72 1.018 0 1.816.312 2.438.955.618.637.932 1.59.932 2.832v1.923c0 1.057-.283 1.909-.844 2.535-.555.627-1.276.93-2.205.93z"/><path d="m174.997 27.682c-.573-.595-1.316-1.065-2.207-1.4-.887-.332-1.944-.499-3.146-.499-1.297 0-2.447.23-3.424.685-.973.453-1.79 1.054-2.434 1.786-.64.728-1.134 1.558-1.464 2.463-.331.905-.501 1.834-.501 2.759v2.822c0 .838.129 1.665.383 2.46.255.801.646 1.523 1.159 2.146.515.628 1.185 1.145 1.987 1.535.807.391 1.756.589 2.818.589.659 0 1.224-.05 1.681-.15.464-.102.874-.252 1.217-.447.344-.194.64-.422.885-.676.146-.153.285-.317.421-.488v.13c0 .466.197.886.588 1.25.384.36.887.542 1.494.542.667 0 1.208-.181 1.604-.539.401-.363.607-.786.607-1.253v-8.979c0-.946-.136-1.829-.399-2.623-.271-.807-.696-1.517-1.269-2.113zm-6.742 2.447c.41-.185.878-.279 1.389-.279.889 0 1.575.199 2.046.59.452.38.683 1.066.683 2.042v3.013c0 .575-.099 1.086-.294 1.517-.198.433-.455.795-.767 1.077-.313.283-.674.501-1.075.647-.406.148-.831.224-1.265.224-.785 0-1.423-.247-1.951-.754-.523-.503-.777-1.087-.777-1.781v-3.078c0-.474.084-.924.252-1.336.167-.413.401-.789.699-1.116.291-.321.648-.579 1.06-.766z"/><path d="m199.413 29.632c-.271-.787-.697-1.476-1.271-2.05-.571-.571-1.313-1.025-2.204-1.35-.887-.32-1.943-.482-3.146-.482-1.296 0-2.442.23-3.408.686-.964.453-1.777 1.06-2.419 1.803-.642.741-1.129 1.61-1.451 2.582-.317.965-.479 1.977-.479 3.007v1.892c0 2.241.573 4.035 1.706 5.334 1.143 1.31 2.78 1.974 4.864 1.974 1.112 0 2.028-.195 2.722-.581.47-.263.869-.582 1.193-.954v.929c0 .71-.081 1.286-.238 1.711-.154.413-.367.743-.629.978-.262.233-.575.395-.934.48-.382.09-.813.136-1.279.136-.771 0-1.372-.042-1.79-.123-.46-.089-.808-.134-1.064-.134-.672 0-1.188.168-1.528.497-.346.333-.521.779-.521 1.329 0 .741.401 1.374 1.242 1.902.301.115.772.215 1.444.306.653.085 1.4.129 2.218.129.964 0 1.899-.145 2.782-.43.884-.288 1.678-.733 2.358-1.322.681-.593 1.23-1.35 1.63-2.249.398-.897.601-1.979.601-3.21v-10.293c0-.882-.135-1.723-.399-2.497zm-7.998.493c.406-.204.87-.306 1.378-.306.892 0 1.582.184 2.053.549.455.352.676.886.676 1.633v3.997c-.041 1.034-.346 1.768-.936 2.24-.605.486-1.308.723-2.145.723-2.052 0-3.048-1.018-3.048-3.112v-2.149c0-.541.086-1.053.255-1.521.168-.466.404-.878.702-1.225.295-.345.653-.623 1.065-.829z"/></svg>